<svg width="39" height="37" viewBox="0 0 39 37" fill="none" xmlns="http://www.w3.org/2000/svg">
<path d="M38.1928 18.1969L20.473 0.405205C20.3455 0.276756 20.1939 0.17485 20.0271 0.10532C19.8603 0.0357893 19.6814 0 19.5008 0C19.3202 0 19.1414 0.0357893 18.9745 0.10532C18.8077 0.17485 18.6561 0.276756 18.5286 0.405205L0.808769 18.1969C0.292534 18.7156 0 19.4201 0 20.155C0 21.6808 1.23466 22.9214 2.75326 22.9214H4.62031V35.6168C4.62031 36.3819 5.23549 37 5.99694 37H16.7475V27.3175H21.5658V37H33.0047C33.7661 37 34.3813 36.3819 34.3813 35.6168V22.9214H36.2484C36.9797 22.9214 37.6809 22.6318 38.1971 22.1088C39.2683 21.0281 39.2683 19.2775 38.1928 18.1969Z" fill="black"/>
</svg>
