<svg width="40" height="51" viewBox="0 0 40 51" fill="none" xmlns="http://www.w3.org/2000/svg">
<circle cx="20" cy="22" r="20" fill="#4E005A"/>
<path d="M26.9155 11.5742C27.3491 11.5742 27.7044 11.255 27.9814 10.6167H29.5713V19.6499H28.3428C27.861 19.1922 27.4334 18.4455 27.0601 17.4097C26.6867 16.3618 26.3796 15.5368 26.1387 14.9346C25.8978 14.3324 25.5967 13.7783 25.2354 13.2725C24.4404 12.1523 23.3384 11.4959 21.9292 11.3032V9.82178C23.4468 9.96631 24.9041 10.4722 26.3013 11.3394C26.5542 11.4959 26.759 11.5742 26.9155 11.5742ZM21.9292 34.8257C24.5789 34.8257 26.4639 33.5008 27.584 30.8511C27.9694 29.9357 28.2464 28.8397 28.415 27.563L30.1313 27.9785C29.758 30.7848 28.8968 32.8866 27.5479 34.2837C26.1989 35.6688 24.326 36.4215 21.9292 36.542V34.8257ZM20.4297 36.542C17.1657 36.3734 14.54 35.0907 12.5527 32.6938C10.5534 30.2729 9.55371 27.0933 9.55371 23.1548C9.55371 19.3247 10.5895 16.151 12.6611 13.6338C14.6966 11.1527 17.2861 9.86393 20.4297 9.76758V11.2852C17.7679 11.5381 15.9974 13.6759 15.1182 17.6987C14.793 19.1922 14.6304 20.9868 14.6304 23.0825C14.6304 25.1662 14.793 26.9006 15.1182 28.2856C15.4434 29.6707 15.877 30.8149 16.4189 31.7183C17.4066 33.3924 18.7435 34.3921 20.4297 34.7173V36.542Z" fill="white"/>
</svg>
