<svg width="51" height="51" viewBox="0 0 51 51" fill="none" xmlns="http://www.w3.org/2000/svg">
<path d="M25.5 0C11.6764 0 0 11.6764 0 25.5C0 39.3236 11.6764 51 25.5 51C39.3236 51 51 39.3236 51 25.5C51 11.6764 39.3236 0 25.5 0ZM25.5 12.75C29.9038 12.75 33.15 15.9936 33.15 20.4C33.15 24.8064 29.9038 28.05 25.5 28.05C21.0987 28.05 17.85 24.8064 17.85 20.4C17.85 15.9936 21.0987 12.75 25.5 12.75ZM12.4797 37.6686C14.767 34.3026 18.5819 32.0586 22.95 32.0586H28.05C32.4207 32.0586 36.233 34.3026 38.5203 37.6686C35.2614 41.157 30.6383 43.35 25.5 43.35C20.3617 43.35 15.7386 41.157 12.4797 37.6686Z" fill="white"/>
</svg>
