<svg width="46" height="46" viewBox="0 0 46 46" fill="none" xmlns="http://www.w3.org/2000/svg">
<path d="M45.8618 42.6936L30.9291 27.7609C33.2464 24.7651 34.4999 21.1024 34.4999 17.2499C34.4999 12.6384 32.7001 8.31446 29.4456 5.05423C26.1911 1.79399 21.8557 0 17.2499 0C12.6442 0 8.30871 1.79974 5.05423 5.05423C1.79399 8.30871 0 12.6384 0 17.2499C0 21.8557 1.79974 26.1911 5.05423 29.4456C8.30871 32.7059 12.6384 34.4999 17.2499 34.4999C21.1024 34.4999 24.7594 33.2464 27.7551 30.9349L42.6878 45.8618C42.7316 45.9056 42.7836 45.9404 42.8408 45.9641C42.898 45.9878 42.9594 46 43.0213 46C43.0833 46 43.1446 45.9878 43.2018 45.9641C43.259 45.9404 43.311 45.9056 43.3548 45.8618L45.8618 43.3606C45.9056 43.3168 45.9404 43.2648 45.9641 43.2076C45.9878 43.1503 46 43.089 46 43.0271C46 42.9651 45.9878 42.9038 45.9641 42.8466C45.9404 42.7893 45.9056 42.7374 45.8618 42.6936ZM26.3579 26.3579C23.9199 28.7901 20.6884 30.1299 17.2499 30.1299C13.8114 30.1299 10.58 28.7901 8.14196 26.3579C5.70973 23.9199 4.36998 20.6884 4.36998 17.2499C4.36998 13.8114 5.70973 10.5742 8.14196 8.14196C10.58 5.70973 13.8114 4.36998 17.2499 4.36998C20.6884 4.36998 23.9256 5.70398 26.3579 8.14196C28.7901 10.58 30.1299 13.8114 30.1299 17.2499C30.1299 20.6884 28.7901 23.9256 26.3579 26.3579Z" fill="black"/>
</svg>
