<svg width="50" height="52" viewBox="0 0 50 52" fill="none" xmlns="http://www.w3.org/2000/svg">
<path d="M29.6904 51.5346H20.3111C19.7235 51.5347 19.1534 51.3339 18.6955 50.9656C18.2376 50.5972 17.9194 50.0834 17.7937 49.5093L16.7449 44.6548C15.3459 44.0417 14.0194 43.2752 12.7897 42.3692L8.0562 43.8766C7.49593 44.0552 6.89139 44.0369 6.34299 43.8246C5.79458 43.6122 5.33531 43.2187 5.04143 42.7093L0.341471 34.59C0.050675 34.0802 -0.0584826 33.4867 0.0318572 32.9068C0.122197 32.3268 0.406686 31.7947 0.83878 31.3975L4.51062 28.0477C4.34364 26.5303 4.34364 24.9992 4.51062 23.4818L0.83878 20.1397C0.406073 19.7423 0.121198 19.2097 0.0308436 18.6292C-0.0595111 18.0487 0.0500153 17.4547 0.341471 16.9446L5.03112 8.82015C5.325 8.31077 5.78428 7.91724 6.33268 7.70491C6.88109 7.49258 7.48562 7.47422 8.0459 7.65289L12.7794 9.16028C13.4081 8.69647 14.0626 8.26358 14.7377 7.87191C15.3896 7.50602 16.0595 7.17362 16.7449 6.8773L17.7963 2.02789C17.9214 1.45379 18.239 0.939702 18.6964 0.570872C19.1538 0.202041 19.7236 0.000618328 20.3111 0H29.6904C30.278 0.000618328 30.8478 0.202041 31.3052 0.570872C31.7626 0.939702 32.0802 1.45379 32.2053 2.02789L33.2669 6.87987C33.9884 7.19939 34.6945 7.55755 35.3773 7.95695C36.0137 8.32542 36.6296 8.72997 37.2222 9.16543L41.9583 7.65805C42.5182 7.48003 43.1221 7.49873 43.67 7.71102C44.2178 7.92332 44.6767 8.31647 44.9705 8.8253L49.6601 16.9497C50.2579 17.9985 50.0518 19.3255 49.1628 20.1423L45.491 23.4921C45.6579 25.0095 45.6579 26.5406 45.491 28.058L49.1628 31.4078C50.0518 32.2272 50.2579 33.5516 49.6601 34.6003L44.9705 42.7248C44.6766 43.2342 44.2173 43.6277 43.6689 43.84C43.1205 44.0524 42.516 44.0707 41.9557 43.892L37.2222 42.3847C35.9935 43.29 34.6677 44.0557 33.2695 44.6676L32.2053 49.5093C32.0797 50.0829 31.7618 50.5964 31.3045 50.9648C30.8471 51.3331 30.2777 51.5341 29.6904 51.5346ZM24.9905 15.4604C22.2569 15.4604 19.6353 16.5463 17.7024 18.4792C15.7695 20.4121 14.6836 23.0337 14.6836 25.7673C14.6836 28.5009 15.7695 31.1225 17.7024 33.0554C19.6353 34.9883 22.2569 36.0742 24.9905 36.0742C27.7241 36.0742 30.3457 34.9883 32.2786 33.0554C34.2115 31.1225 35.2974 28.5009 35.2974 25.7673C35.2974 23.0337 34.2115 20.4121 32.2786 18.4792C30.3457 16.5463 27.7241 15.4604 24.9905 15.4604Z" fill="white"/>
</svg>
