<svg width="56" height="54" viewBox="0 0 56 54" fill="none" xmlns="http://www.w3.org/2000/svg">
<path d="M54.19 19.0149L37.4023 16.5513L29.8978 1.18846C29.6928 0.767832 29.3556 0.427326 28.939 0.220352C27.8943 -0.300422 26.6248 0.133556 26.1025 1.18846L18.598 16.5513L1.81025 19.0149C1.34741 19.0817 0.924246 19.302 0.600261 19.6359C0.208581 20.0424 -0.00725269 20.5893 0.000186099 21.1564C0.00762489 21.7235 0.237727 22.2645 0.639932 22.6604L12.7861 34.6181L9.91648 51.5032C9.84919 51.896 9.89223 52.2999 10.0407 52.6693C10.1892 53.0386 10.4372 53.3586 10.7567 53.5928C11.0761 53.8271 11.4541 53.9662 11.8478 53.9946C12.2416 54.0229 12.6353 53.9393 12.9844 53.7532L28.0001 45.7814L43.0158 53.7532C43.4258 53.9735 43.9019 54.047 44.3581 53.9669C45.5086 53.7666 46.2821 52.6649 46.0838 51.5032L43.2142 34.6181L55.3603 22.6604C55.6909 22.3332 55.9091 21.9059 55.9752 21.4385C56.1538 20.2701 55.3471 19.1885 54.19 19.0149Z" fill="black"/>
</svg>
