<svg width="50" height="45" viewBox="0 0 50 45" fill="none" xmlns="http://www.w3.org/2000/svg">
<path d="M49.1425 11.3617L49.143 11.3623C49.3273 11.6279 49.4445 11.9342 49.4846 12.255C49.5246 12.5757 49.4864 12.9014 49.373 13.2041C49.373 13.2042 49.373 13.2042 49.3729 13.2043L41.8737 33.2024C41.8736 33.2025 41.8735 33.2027 41.8735 33.2029C41.5791 33.9812 40.8326 34.4991 39.9989 34.4991H19.9995C19.6047 34.4991 19.2188 34.3823 18.8903 34.1635C18.5619 33.9446 18.3055 33.6335 18.1536 33.2693C18.1535 33.2692 18.1535 33.2692 18.1535 33.2691L6.29388 4.80756L6.16567 4.49988H5.83235H0.5V0.500011L5.83235 0.500012L5.83339 0.50001C6.72162 0.498153 7.59041 0.760091 8.32959 1.25261L8.60683 0.836516L8.32959 1.25261C9.06877 1.74513 9.64505 2.44605 9.98538 3.2665L9.98567 3.26721L12.8706 10.192L12.9988 10.4997H13.3321H47.4986C47.4986 10.4997 47.4987 10.4997 47.4987 10.4997C47.822 10.4999 48.1403 10.5784 48.4266 10.7285C48.7129 10.8786 48.9586 11.0959 49.1425 11.3617Z" fill="white" stroke="black"/>
<path d="M24.4993 41.2489C24.4993 43.0438 23.0443 44.4988 21.2494 44.4988C19.4546 44.4988 17.9995 43.0438 17.9995 41.2489C17.9995 39.4541 19.4546 37.999 21.2494 37.999C23.0443 37.999 24.4993 39.4541 24.4993 41.2489Z" fill="white" stroke="black"/>
<path d="M41.9989 41.2489C41.9989 43.0438 40.5438 44.4988 38.749 44.4988C36.9541 44.4988 35.4991 43.0438 35.4991 41.2489C35.4991 39.4541 36.9541 37.999 38.749 37.999C40.5438 37.999 41.9989 39.4541 41.9989 41.2489Z" fill="white" stroke="black"/>
</svg>
