<svg width="50" height="45" viewBox="0 0 50 45" fill="none" xmlns="http://www.w3.org/2000/svg">
<path d="M49.5537 11.0772C49.3237 10.7449 49.0167 10.4733 48.6588 10.2856C48.3009 10.098 47.9028 9.99988 47.4987 9.99975H13.3321L10.4472 3.07493C10.069 2.16301 9.42842 1.38395 8.60683 0.836516C7.78525 0.289087 6.81961 -0.00205255 5.83235 1.08928e-05H0V4.99988H5.83235L17.692 33.4616C17.882 33.917 18.2025 34.306 18.6131 34.5796C19.0237 34.8532 19.5061 34.9991 19.9995 34.9991H39.9989C41.0414 34.9991 41.9739 34.3516 42.3414 33.3791L49.8412 13.3797C49.9829 13.0012 50.0308 12.5941 49.9807 12.1931C49.9307 11.7921 49.7841 11.4092 49.5537 11.0772Z" fill="black"/>
<path d="M21.2494 44.9988C23.3205 44.9988 24.9993 43.3199 24.9993 41.2489C24.9993 39.1779 23.3205 37.499 21.2494 37.499C19.1784 37.499 17.4995 39.1779 17.4995 41.2489C17.4995 43.3199 19.1784 44.9988 21.2494 44.9988Z" fill="black"/>
<path d="M38.749 44.9988C40.82 44.9988 42.4989 43.3199 42.4989 41.2489C42.4989 39.1779 40.82 37.499 38.749 37.499C36.678 37.499 34.9991 39.1779 34.9991 41.2489C34.9991 43.3199 36.678 44.9988 38.749 44.9988Z" fill="black"/>
</svg>
